<svg width="20" height="20" viewBox="0 0 20 20" fill="none" xmlns="http://www.w3.org/2000/svg">
  <g clip-path="url(#clip0_1_5551)">
    <path opacity="0.3" d="M6.66666 5.83333H15.8333V17.5H6.66666V5.83333Z" fill="#635BFF"/>
    <path d="M13.3333 0.833328H3.33332C2.41666 0.833328 1.66666 1.58333 1.66666 2.49999V14.1667H3.33332V2.49999H13.3333V0.833328ZM15.8333 4.16666H6.66666C5.74999 4.16666 4.99999 4.91666 4.99999 5.83333V17.5C4.99999 18.4167 5.74999 19.1667 6.66666 19.1667H15.8333C16.75 19.1667 17.5 18.4167 17.5 17.5V5.83333C17.5 4.91666 16.75 4.16666 15.8333 4.16666ZM15.8333 17.5H6.66666V5.83333H15.8333V17.5Z" fill="#635BFF"/>
  </g>
  <defs>
    <clipPath id="clip0_1_5551">
      <rect width="20" height="20" fill="white"/>
    </clipPath>
  </defs>
</svg>
