<svg width="248" height="42" viewBox="0 0 248 42" fill="none" xmlns="http://www.w3.org/2000/svg">
  <rect x="0.5" y="1.5" width="39" height="39" rx="7.5" stroke="#E5E7EB"/>
  <path d="M28.7738 18.4886L25.3465 21.1447L23.6854 15.4846L21.7867 9.62876L21.7459 9.50193V9.49469C21.4878 8.78083 20.839 8.27353 20.0781 8.27353C19.3172 8.27353 18.6684 8.78083 18.4103 9.49469H14.1813C14.5889 6.38199 17.0652 3.99039 20.0577 3.99039C22.6868 3.99039 24.9151 5.83844 25.6963 8.3931L28.7704 18.4886H28.7738Z" fill="url(#paint0_linear_650_808)"/>
  <path d="M25.2275 29.2477L21.7968 26.5952L26.3247 23.1564L30.9545 19.4168L31.0564 19.3335H31.0632C31.6202 18.8479 31.8716 18.0326 31.6338 17.2607C31.3994 16.4889 30.7439 15.9888 30.0271 15.949L28.716 11.6586C31.6168 11.1078 34.5177 12.8761 35.445 15.9127C36.2602 18.5797 35.3057 21.4134 33.271 22.997L25.2275 29.2477Z" fill="url(#paint1_linear_650_808)"/>
  <path d="M14.7446 29.0514L16.0319 24.7429L20.5123 28.2505L25.2949 31.7655L25.4002 31.8416H25.407C26.0116 32.2583 26.8166 32.2583 27.428 31.7763C28.0395 31.2944 28.2806 30.4755 28.0904 29.7399L31.4974 27.0656C32.8968 29.8304 32.2311 33.3236 29.8228 35.2152C27.7032 36.8784 24.8839 36.7987 22.8322 35.2333L14.748 29.0441L14.7446 29.0514Z" fill="url(#paint2_linear_650_808)"/>
  <path d="M11.6928 18.0323L15.9285 18.0577L14.1248 23.6671L12.4027 29.5845L12.3653 29.7149V29.7222C12.1751 30.4578 12.4163 31.2804 13.0277 31.7587C13.6391 32.237 14.4441 32.2406 15.0488 31.8275L18.4557 34.4981C16.3973 36.7484 13.0753 37.1108 10.6636 35.2192C8.54398 33.5596 7.77292 30.6607 8.56436 28.1061L11.6928 18.0287V18.0323Z" fill="url(#paint3_linear_650_808)"/>
  <path d="M20.1507 11.5574L21.4754 15.8514L15.9149 15.8079L10.1099 15.9456H9.97399C9.25727 15.9927 8.60849 16.4964 8.37412 17.2682C8.14314 18.04 8.3945 18.8554 8.95496 19.3337L7.6642 23.6277C5.01133 22.2616 3.63225 19.0148 4.54597 15.9746C5.35101 13.3039 7.67778 11.6045 10.1982 11.59L20.1473 11.5501L20.1507 11.5574Z" fill="url(#paint4_linear_650_808)"/>
  <path d="M34.202 26.7609C35.0124 26.7609 35.6694 26.06 35.6694 25.1955C35.6694 24.3309 35.0124 23.6301 34.202 23.6301C33.3915 23.6301 32.7346 24.3309 32.7346 25.1955C32.7346 26.06 33.3915 26.7609 34.202 26.7609Z" fill="url(#paint5_linear_650_808)"/>
  <path d="M10.6539 9.94789C11.4643 9.94789 12.1213 9.24703 12.1213 8.38248C12.1213 7.51793 11.4643 6.81708 10.6539 6.81708C9.84344 6.81708 9.18646 7.51793 9.18646 8.38248C9.18646 9.24703 9.84344 9.94789 10.6539 9.94789Z" fill="url(#paint6_linear_650_808)"/>
  <path d="M28.5774 9.94789C29.3878 9.94789 30.0448 9.24703 30.0448 8.38248C30.0448 7.51793 29.3878 6.81708 28.5774 6.81708C27.767 6.81708 27.11 7.51793 27.11 8.38248C27.11 9.24703 27.767 9.94789 28.5774 9.94789Z" fill="url(#paint7_linear_650_808)"/>
  <path d="M5.94793 27.878C6.75835 27.878 7.41532 27.1771 7.41532 26.3126C7.41532 25.448 6.75835 24.7472 5.94793 24.7472C5.13751 24.7472 4.48053 25.448 4.48053 26.3126C4.48053 27.1771 5.13751 27.878 5.94793 27.878Z" fill="url(#paint8_linear_650_808)"/>
  <path d="M20.3315 38.0096C21.1419 38.0096 21.7989 37.3087 21.7989 36.4442C21.7989 35.5796 21.1419 34.8788 20.3315 34.8788C19.521 34.8788 18.8641 35.5796 18.8641 36.4442C18.8641 37.3087 19.521 38.0096 20.3315 38.0096Z" fill="url(#paint9_linear_650_808)"/>
  <path d="M62.084 18.216C61.232 18.216 60.44 18.06 59.708 17.748C58.988 17.436 58.364 17.004 57.836 16.452C57.32 15.888 56.942 15.234 56.702 14.49L58.736 13.608C59.06 14.376 59.528 14.982 60.14 15.426C60.752 15.858 61.442 16.074 62.21 16.074C62.642 16.074 63.014 16.008 63.326 15.876C63.65 15.732 63.896 15.54 64.064 15.3C64.244 15.06 64.334 14.772 64.334 14.436C64.334 14.04 64.214 13.716 63.974 13.464C63.746 13.2 63.398 12.996 62.93 12.852L60.356 12.024C59.312 11.7 58.526 11.214 57.998 10.566C57.47 9.918 57.206 9.156 57.206 8.28C57.206 7.512 57.392 6.834 57.764 6.246C58.148 5.658 58.676 5.202 59.348 4.878C60.032 4.542 60.812 4.374 61.688 4.374C62.492 4.374 63.23 4.518 63.902 4.806C64.574 5.082 65.15 5.472 65.63 5.976C66.122 6.468 66.488 7.05 66.728 7.722L64.712 8.622C64.448 7.95 64.052 7.434 63.524 7.074C62.996 6.702 62.384 6.516 61.688 6.516C61.28 6.516 60.92 6.588 60.608 6.732C60.296 6.864 60.05 7.056 59.87 7.308C59.702 7.548 59.618 7.836 59.618 8.172C59.618 8.544 59.738 8.874 59.978 9.162C60.218 9.438 60.584 9.654 61.076 9.81L63.542 10.584C64.61 10.932 65.408 11.412 65.936 12.024C66.476 12.636 66.746 13.392 66.746 14.292C66.746 15.06 66.548 15.738 66.152 16.326C65.756 16.914 65.21 17.376 64.514 17.712C63.818 18.048 63.008 18.216 62.084 18.216ZM71.3263 18V6.75H67.8523V4.59H77.2123V6.75H73.7923V18H71.3263ZM76.7117 18L81.3377 4.59H84.5057L89.1317 18H86.4677L85.5137 15.12H80.3297L79.3577 18H76.7117ZM81.0317 12.96H84.8117L82.5797 6.282H83.2637L81.0317 12.96ZM90.6241 18V4.59H95.6101C96.5221 4.59 97.3261 4.758 98.0221 5.094C98.7301 5.418 99.2821 5.898 99.6781 6.534C100.074 7.158 100.272 7.92 100.272 8.82C100.272 9.744 100.05 10.53 99.6061 11.178C99.1741 11.826 98.5861 12.306 97.8421 12.618L100.92 18H98.1481L94.8541 12.114L96.4381 13.05H93.0721V18H90.6241ZM93.0721 10.89H95.6461C96.0901 10.89 96.4741 10.806 96.7981 10.638C97.1221 10.458 97.3741 10.212 97.5541 9.9C97.7341 9.588 97.8241 9.228 97.8241 8.82C97.8241 8.4 97.7341 8.04 97.5541 7.74C97.3741 7.428 97.1221 7.188 96.7981 7.02C96.4741 6.84 96.0901 6.75 95.6461 6.75H93.0721V10.89ZM101.427 18L106.053 4.59H109.221L113.847 18H111.183L110.229 15.12H105.045L104.073 18H101.427ZM105.747 12.96H109.527L107.295 6.282H107.979L105.747 12.96ZM121.094 18.216C120.134 18.216 119.246 18.042 118.43 17.694C117.626 17.346 116.918 16.86 116.306 16.236C115.706 15.612 115.238 14.88 114.902 14.04C114.566 13.2 114.398 12.282 114.398 11.286C114.398 10.29 114.56 9.372 114.884 8.532C115.22 7.68 115.688 6.948 116.288 6.336C116.9 5.712 117.614 5.232 118.43 4.896C119.246 4.548 120.134 4.374 121.094 4.374C122.054 4.374 122.912 4.536 123.668 4.86C124.436 5.184 125.084 5.616 125.612 6.156C126.14 6.684 126.518 7.266 126.746 7.902L124.55 8.928C124.298 8.256 123.872 7.704 123.272 7.272C122.672 6.828 121.946 6.606 121.094 6.606C120.254 6.606 119.51 6.804 118.862 7.2C118.226 7.596 117.728 8.142 117.368 8.838C117.02 9.534 116.846 10.35 116.846 11.286C116.846 12.222 117.02 13.044 117.368 13.752C117.728 14.448 118.226 14.994 118.862 15.39C119.51 15.786 120.254 15.984 121.094 15.984C121.946 15.984 122.672 15.768 123.272 15.336C123.872 14.892 124.298 14.334 124.55 13.662L126.746 14.688C126.518 15.324 126.14 15.912 125.612 16.452C125.084 16.98 124.436 17.406 123.668 17.73C122.912 18.054 122.054 18.216 121.094 18.216ZM128.734 18V4.59H131.182V11.574L130.516 11.34L136.222 4.59H139.3L133.954 10.926L134.098 9.198L139.462 18H136.582L132.982 12.096L131.182 14.238V18H128.734Z" fill="white"/>
  <path d="M57.7216 27.2727L60.1506 34.3807H60.2486L62.6776 27.2727H64.1009L60.9602 36H59.4389L56.2983 27.2727H57.7216ZM67.4237 36.1321C66.7788 36.1321 66.2234 35.9943 65.7575 35.7188C65.2944 35.4403 64.9364 35.0497 64.6836 34.5469C64.4336 34.0412 64.3086 33.4489 64.3086 32.7699C64.3086 32.0994 64.4336 31.5085 64.6836 30.9972C64.9364 30.4858 65.2887 30.0866 65.7404 29.7997C66.195 29.5128 66.7262 29.3693 67.3342 29.3693C67.7035 29.3693 68.0614 29.4304 68.408 29.5526C68.7546 29.6747 69.0657 29.8665 69.3413 30.1278C69.6168 30.3892 69.8342 30.7287 69.9933 31.1463C70.1523 31.5611 70.2319 32.0653 70.2319 32.6591V33.1108H65.0288V32.1562H68.9833C68.9833 31.821 68.9151 31.5241 68.7788 31.2656C68.6424 31.0043 68.4506 30.7983 68.2035 30.6477C67.9592 30.4972 67.6722 30.4219 67.3427 30.4219C66.9847 30.4219 66.6722 30.5099 66.4052 30.6861C66.141 30.8594 65.9364 31.0866 65.7915 31.3679C65.6495 31.6463 65.5785 31.9489 65.5785 32.2756V33.0213C65.5785 33.4588 65.6552 33.831 65.8086 34.1378C65.9648 34.4446 66.1822 34.679 66.4606 34.8409C66.739 35 67.0643 35.0795 67.4364 35.0795C67.6779 35.0795 67.8981 35.0455 68.0969 34.9773C68.2958 34.9062 68.4677 34.8011 68.6126 34.6619C68.7575 34.5227 68.8683 34.3509 68.945 34.1463L70.1509 34.3636C70.0543 34.7187 69.881 35.0298 69.631 35.2969C69.3839 35.5611 69.0728 35.767 68.6978 35.9148C68.3256 36.0597 67.9009 36.1321 67.4237 36.1321ZM71.6456 36V29.4545H72.8771V30.4943H72.9453C73.0646 30.142 73.2749 29.8651 73.576 29.6634C73.88 29.4588 74.2237 29.3565 74.6072 29.3565C74.6868 29.3565 74.7805 29.3594 74.8885 29.3651C74.9993 29.3707 75.0859 29.3778 75.1484 29.3864V30.6051C75.0973 30.5909 75.0064 30.5753 74.8757 30.5582C74.745 30.5384 74.6143 30.5284 74.4837 30.5284C74.1825 30.5284 73.9141 30.5923 73.6783 30.7202C73.4453 30.8452 73.2607 31.0199 73.1243 31.2443C72.9879 31.4659 72.9197 31.7187 72.9197 32.0028V36H71.6456ZM81.1559 31.0526L80.0011 31.2571C79.9528 31.1094 79.8761 30.9687 79.771 30.8352C79.6687 30.7017 79.5295 30.5923 79.3533 30.5071C79.1772 30.4219 78.957 30.3793 78.6928 30.3793C78.332 30.3793 78.0309 30.4602 77.7894 30.6222C77.5479 30.7812 77.4272 30.9872 77.4272 31.2401C77.4272 31.4588 77.5082 31.6349 77.6701 31.7685C77.832 31.902 78.0934 32.0114 78.4542 32.0966L79.494 32.3352C80.0962 32.4744 80.5451 32.6889 80.8406 32.9787C81.136 33.2685 81.2837 33.6449 81.2837 34.108C81.2837 34.5 81.1701 34.8494 80.9428 35.1562C80.7184 35.4602 80.4045 35.6989 80.0011 35.8722C79.6005 36.0455 79.136 36.1321 78.6076 36.1321C77.8746 36.1321 77.2766 35.9759 76.8136 35.6634C76.3505 35.348 76.0664 34.9006 75.9613 34.321L77.1928 34.1335C77.2695 34.4545 77.4272 34.6974 77.6658 34.8622C77.9045 35.0241 78.2156 35.1051 78.5991 35.1051C79.0167 35.1051 79.3505 35.0185 79.6005 34.8452C79.8505 34.669 79.9755 34.4545 79.9755 34.2017C79.9755 33.9972 79.8988 33.8253 79.7454 33.6861C79.5948 33.5469 79.3633 33.4418 79.0508 33.3707L77.9428 33.1278C77.332 32.9886 76.8803 32.767 76.5877 32.4631C76.2979 32.1591 76.1531 31.7741 76.1531 31.3082C76.1531 30.9219 76.261 30.5838 76.4769 30.294C76.6928 30.0043 76.9911 29.7784 77.3718 29.6165C77.7525 29.4517 78.1886 29.3693 78.68 29.3693C79.3874 29.3693 79.9442 29.5227 80.3505 29.8295C80.7567 30.1335 81.0252 30.5412 81.1559 31.0526ZM82.6847 36V29.4545H83.9588V36H82.6847ZM83.3281 28.4446C83.1065 28.4446 82.9162 28.3707 82.7571 28.223C82.6009 28.0724 82.5227 27.8935 82.5227 27.6861C82.5227 27.4759 82.6009 27.2969 82.7571 27.1491C82.9162 26.9986 83.1065 26.9233 83.3281 26.9233C83.5497 26.9233 83.7386 26.9986 83.8949 27.1491C84.054 27.2969 84.1335 27.4759 84.1335 27.6861C84.1335 27.8935 84.054 28.0724 83.8949 28.223C83.7386 28.3707 83.5497 28.4446 83.3281 28.4446ZM88.43 36.1321C87.8164 36.1321 87.2809 35.9915 86.8235 35.7102C86.3661 35.429 86.011 35.0355 85.7582 34.5298C85.5053 34.0241 85.3789 33.4332 85.3789 32.7571C85.3789 32.0781 85.5053 31.4844 85.7582 30.9759C86.011 30.4673 86.3661 30.0724 86.8235 29.7912C87.2809 29.5099 87.8164 29.3693 88.43 29.3693C89.0437 29.3693 89.5792 29.5099 90.0366 29.7912C90.494 30.0724 90.8491 30.4673 91.1019 30.9759C91.3548 31.4844 91.4812 32.0781 91.4812 32.7571C91.4812 33.4332 91.3548 34.0241 91.1019 34.5298C90.8491 35.0355 90.494 35.429 90.0366 35.7102C89.5792 35.9915 89.0437 36.1321 88.43 36.1321ZM88.4343 35.0625C88.832 35.0625 89.1616 34.9574 89.4229 34.7472C89.6843 34.5369 89.8775 34.2571 90.0025 33.9077C90.1303 33.5582 90.1942 33.1733 90.1942 32.7528C90.1942 32.3352 90.1303 31.9517 90.0025 31.6023C89.8775 31.25 89.6843 30.9673 89.4229 30.7543C89.1616 30.5412 88.832 30.4347 88.4343 30.4347C88.0337 30.4347 87.7013 30.5412 87.4371 30.7543C87.1758 30.9673 86.9812 31.25 86.8533 31.6023C86.7283 31.9517 86.6658 32.3352 86.6658 32.7528C86.6658 33.1733 86.7283 33.5582 86.8533 33.9077C86.9812 34.2571 87.1758 34.5369 87.4371 34.7472C87.7013 34.9574 88.0337 35.0625 88.4343 35.0625ZM94.1776 32.1136V36H92.9034V29.4545H94.1264V30.5199H94.2074C94.358 30.1733 94.5938 29.8949 94.9148 29.6847C95.2386 29.4744 95.6463 29.3693 96.1378 29.3693C96.5838 29.3693 96.9744 29.4631 97.3097 29.6506C97.6449 29.8352 97.9048 30.1108 98.0895 30.4773C98.2741 30.8437 98.3665 31.2969 98.3665 31.8366V36H97.0923V31.9901C97.0923 31.5156 96.9688 31.1449 96.7216 30.8778C96.4744 30.608 96.1349 30.473 95.7031 30.473C95.4077 30.473 95.1449 30.5369 94.9148 30.6648C94.6875 30.7926 94.5071 30.9801 94.3736 31.2273C94.2429 31.4716 94.1776 31.767 94.1776 32.1136ZM104.116 27.2727L106.545 34.3807H106.643L109.072 27.2727H110.495L107.355 36H105.833L102.693 27.2727H104.116ZM114.947 27.2727V36H113.626V28.5938H113.575L111.487 29.9574V28.696L113.665 27.2727H114.947ZM117.661 36.081C117.428 36.081 117.228 35.9986 117.06 35.8338C116.892 35.6662 116.809 35.4645 116.809 35.2287C116.809 34.9957 116.892 34.7969 117.06 34.6321C117.228 34.4645 117.428 34.3807 117.661 34.3807C117.894 34.3807 118.094 34.4645 118.262 34.6321C118.429 34.7969 118.513 34.9957 118.513 35.2287C118.513 35.3849 118.473 35.5284 118.394 35.6591C118.317 35.7869 118.215 35.8892 118.087 35.9659C117.959 36.0426 117.817 36.081 117.661 36.081ZM120.203 36V35.0455L123.156 31.9858C123.471 31.6534 123.731 31.3622 123.936 31.1122C124.143 30.8594 124.298 30.6193 124.4 30.392C124.502 30.1648 124.554 29.9233 124.554 29.6676C124.554 29.3778 124.485 29.1278 124.349 28.9176C124.213 28.7045 124.027 28.5412 123.791 28.4276C123.555 28.3111 123.289 28.2528 122.994 28.2528C122.681 28.2528 122.409 28.3168 122.176 28.4446C121.943 28.5724 121.764 28.7528 121.639 28.9858C121.514 29.2187 121.451 29.4915 121.451 29.804H120.194C120.194 29.2727 120.316 28.8082 120.561 28.4105C120.805 28.0128 121.14 27.7045 121.566 27.4858C121.993 27.2642 122.477 27.1534 123.02 27.1534C123.568 27.1534 124.051 27.2628 124.468 27.4815C124.889 27.6974 125.217 27.9929 125.453 28.3679C125.689 28.7401 125.806 29.1605 125.806 29.6293C125.806 29.9531 125.745 30.2699 125.623 30.5795C125.504 30.8892 125.295 31.2344 124.997 31.6151C124.699 31.9929 124.284 32.4517 123.752 32.9915L122.018 34.8068V34.8707H125.947V36H120.203Z" fill="#B5BCC4"/>
  <defs>
    <linearGradient id="paint0_linear_650_808" x1="39.3649" y1="-8.17778" x2="11.4278" y2="21.124" gradientUnits="userSpaceOnUse">
      <stop stop-color="#A71E22"/>
      <stop offset="0.37" stop-color="#BE2A2E"/>
      <stop offset="1" stop-color="#EF4448"/>
    </linearGradient>
    <linearGradient id="paint1_linear_650_808" x1="46.6373" y1="-1.23791" x2="18.7002" y2="28.0639" gradientUnits="userSpaceOnUse">
      <stop stop-color="#A71E22"/>
      <stop offset="0.37" stop-color="#BE2A2E"/>
      <stop offset="1" stop-color="#EF4448"/>
    </linearGradient>
    <linearGradient id="paint2_linear_650_808" x1="48.0395" y1="0.102141" x2="20.1059" y2="29.4042" gradientUnits="userSpaceOnUse">
      <stop stop-color="#A71E22"/>
      <stop offset="0.37" stop-color="#BE2A2E"/>
      <stop offset="1" stop-color="#EF4448"/>
    </linearGradient>
    <linearGradient id="paint3_linear_650_808" x1="41.9035" y1="-5.76044" x2="13.9662" y2="23.545" gradientUnits="userSpaceOnUse">
      <stop stop-color="#A71E22"/>
      <stop offset="0.37" stop-color="#BE2A2E"/>
      <stop offset="1" stop-color="#EF4448"/>
    </linearGradient>
    <linearGradient id="paint4_linear_650_808" x1="35.7418" y1="-11.6266" x2="7.8081" y2="17.6754" gradientUnits="userSpaceOnUse">
      <stop stop-color="#A71E22"/>
      <stop offset="0.37" stop-color="#BE2A2E"/>
      <stop offset="1" stop-color="#EF4448"/>
    </linearGradient>
    <linearGradient id="paint5_linear_650_808" x1="52.0417" y1="3.90307" x2="24.1047" y2="33.2049" gradientUnits="userSpaceOnUse">
      <stop stop-color="#A71E22"/>
      <stop offset="0.37" stop-color="#BE2A2E"/>
      <stop offset="1" stop-color="#EF4448"/>
    </linearGradient>
    <linearGradient id="paint6_linear_650_808" x1="31.1159" y1="-16.0444" x2="3.17865" y2="13.261" gradientUnits="userSpaceOnUse">
      <stop stop-color="#A71E22"/>
      <stop offset="0.37" stop-color="#BE2A2E"/>
      <stop offset="1" stop-color="#EF4448"/>
    </linearGradient>
    <linearGradient id="paint7_linear_650_808" x1="41.0774" y1="-6.53961" x2="13.1404" y2="22.7622" gradientUnits="userSpaceOnUse">
      <stop stop-color="#A71E22"/>
      <stop offset="0.37" stop-color="#BE2A2E"/>
      <stop offset="1" stop-color="#EF4448"/>
    </linearGradient>
    <linearGradient id="paint8_linear_650_808" x1="36.8482" y1="-10.5761" x2="8.91103" y2="18.7257" gradientUnits="userSpaceOnUse">
      <stop stop-color="#A71E22"/>
      <stop offset="0.37" stop-color="#BE2A2E"/>
      <stop offset="1" stop-color="#EF4448"/>
    </linearGradient>
    <linearGradient id="paint9_linear_650_808" x1="49.5605" y1="1.54854" x2="21.6266" y2="30.8542" gradientUnits="userSpaceOnUse">
      <stop stop-color="#A71E22"/>
      <stop offset="0.37" stop-color="#BE2A2E"/>
      <stop offset="1" stop-color="#D24043"/>
    </linearGradient>
  </defs>
</svg>
